<svg xmlns="http://www.w3.org/2000/svg" xmlns:xlink="http://www.w3.org/1999/xlink" fill="none" version="1.1" width="117" height="48" viewBox="0 0 117 48"><defs><clipPath id="master_svg0_26_73"><rect x="0" y="0" width="117" height="48" rx="0"/></clipPath><linearGradient x1="0.21250036358833313" y1="0.10625000298023224" x2="0.7338641285896301" y2="0.9426166415214539" id="master_svg1_26_074"><stop offset="0%" stop-color="#9D41FF" stop-opacity="1"/><stop offset="46.879398822784424%" stop-color="#2858FF" stop-opacity="1"/><stop offset="77.08839774131775%" stop-color="#29B8FF" stop-opacity="1"/><stop offset="100%" stop-color="#00F0FF" stop-opacity="1"/></linearGradient></defs><g clip-path="url(#master_svg0_26_73)"><g><rect x="55.27510070800781" y="15.000100135803223" width="13.609800338745117" height="3" rx="0" fill="#000000" fill-opacity="1"/></g><g><rect x="102.43199920654297" y="15.000100135803223" width="13.609800338745117" height="3" rx="0" fill="#000000" fill-opacity="1"/></g><g><rect x="80.46530151367188" y="8.040040016174316" width="3.2233800888061523" height="24.959999084472656" rx="0" fill="#000000" fill-opacity="1"/></g><g><rect x="73.30220031738281" y="15.000100135803223" width="3.2233901023864746" height="18" rx="0" fill="#000000" fill-opacity="1"/></g><g transform="matrix(1,0,0,-1,0,22.559999465942383)"><rect x="73.30220031738281" y="11.279999732971191" width="3.2233901023864746" height="3.240000009536743" rx="0" fill="#000000" fill-opacity="1"/></g><g><rect x="54.916900634765625" y="30" width="14.326199531555176" height="3" rx="0" fill="#000000" fill-opacity="1"/></g><g><path d="M54.916900634765625,30L65.06580063476562,18L68.88490063476563,18L58.73590063476563,30L54.916900634765625,30Z" fill="#000000" fill-opacity="1"/></g><g><path d="M102.0739974975586,30L112.2229974975586,18L116.0419974975586,18L105.8929974975586,30L102.0739974975586,30Z" fill="#000000" fill-opacity="1"/></g><g><rect x="87.62840270996094" y="8.040040016174316" width="3.2233901023864746" height="24.959999084472656" rx="0" fill="#000000" fill-opacity="1"/></g><g><rect x="102.0739974975586" y="30" width="14.32610034942627" height="3" rx="0" fill="#000000" fill-opacity="1"/></g><g><rect x="94.79139709472656" y="15.000100135803223" width="3.223400115966797" height="18" rx="0" fill="#000000" fill-opacity="1"/></g><g transform="matrix(1,0,0,-1,0,22.559999465942383)"><rect x="94.79139709472656" y="11.279999732971191" width="3.223400115966797" height="3.240000009536743" rx="0" fill="#000000" fill-opacity="1"/></g><g><path d="M22.3846,32.633L22.3846,48L25.3692,48L25.3692,29.5981L33.3056,43.4152C34.2037,42.9737,35.0666,42.4711,35.889,41.9128L27.2013,26.7876L36.7688,30.2879C37.2005,29.3953,37.5431,28.4511,37.7851,27.4671L32.4082,25.5L47.7538,25.5L47.7538,22.5L29.4462,22.5L43.1926,14.5226C42.7533,13.6199,42.2534,12.7525,41.6979,11.9259L26.7394,20.6067L30.1923,11.0711C29.3061,10.633,28.3684,10.2842,27.3908,10.0364L25.3692,15.6192L25.3692,0L22.3846,0L22.3846,18.4019L14.4482,4.58473C13.5501,5.02621,12.6872,5.52878,11.8648,6.08707L20.5164,21.1495L11.0056,17.67C10.571,18.5612,10.2252,19.5042,9.98007,20.4873L15.4816,22.5L0,22.5L0,25.5L18.3075,25.5L4.56124,33.4773C5.00045,34.38,5.50045,35.2474,6.05588,36.074L21.1301,27.326L17.6391,36.967C18.5277,37.3997,19.4674,37.7428,20.4468,37.9847L22.3846,32.633Z" fill="url(#master_svg1_26_074)" fill-opacity="1"/></g></g></svg>